<svg width="32" height="34" viewBox="0 0 32 34" fill="none" xmlns="http://www.w3.org/2000/svg">
<path fill-rule="evenodd" clip-rule="evenodd" d="M29.8226 1.33684C28.7334 0.452196 27.4019 -0.0342539 26.1048 0.00187891C24.7203 0.0267813 23.5138 0.597704 22.7071 1.60906C22.3192 2.09624 22.3954 2.80815 22.8784 3.19951C23.3613 3.59172 24.0663 3.51482 24.4549 3.02764C24.8377 2.54802 25.4373 2.27727 26.1452 2.26445C26.9533 2.24028 27.7361 2.54717 28.4164 3.09929C29.7606 4.19133 30.171 5.93645 29.3307 6.98918C28.9427 7.47637 29.0189 8.18828 29.5019 8.57976C29.709 8.74785 29.9571 8.83013 30.2038 8.83013C30.5313 8.83013 30.8565 8.68608 31.0785 8.40776C32.6933 6.38286 32.1303 3.21086 29.8226 1.33684ZM2.29758 5.16069C2.15854 5.86052 2.29306 6.51067 2.67587 6.99028C3.06455 7.47746 2.98837 8.18938 2.50546 8.58232C2.29831 8.75127 2.04941 8.83269 1.8027 8.83269C1.62485 8.83269 1.4476 8.79021 1.28745 8.70696C1.15268 8.63689 1.02988 8.53789 0.928803 8.41106C0.122163 7.39983 -0.173125 6.0883 0.098237 4.7188C0.354585 3.42388 1.0947 2.22405 2.18393 1.3394C4.49167 -0.534742 7.68234 -0.41255 9.29941 1.61162C9.68735 2.09807 9.61118 2.80998 9.129 3.2022C8.64597 3.59282 7.94028 3.51665 7.55234 3.0302C6.71347 1.9782 4.93503 2.00835 3.59091 3.10112C2.91061 3.65312 2.4509 4.38469 2.29758 5.16069ZM16.0029 2.84807C23.5518 2.84807 29.6932 9.0435 29.6932 16.659C29.6932 20.9463 27.7473 24.7835 24.698 27.3182L28.1397 32.2149C28.4986 32.7248 28.379 33.4306 27.8736 33.7918C27.6778 33.9322 27.4513 34 27.2263 34C26.8748 34 26.5288 33.834 26.3105 33.5226L22.8499 28.5995C20.8322 29.7813 18.4975 30.469 16.0022 30.469C13.5067 30.469 11.172 29.7813 9.155 28.5995L5.69455 33.5226C5.47617 33.834 5.1301 34 4.77878 34C4.55441 34 4.32871 33.9329 4.13132 33.7918C3.62595 33.4299 3.50705 32.7248 3.8652 32.2149L7.30698 27.3182C4.25913 24.7828 2.31247 20.9463 2.31247 16.659C2.31247 9.0435 8.45383 2.84807 16.0029 2.84807ZM16.0036 5.11052C9.69101 5.11052 4.556 10.2916 4.556 16.659C4.556 23.027 9.69101 28.2073 16.0036 28.2073C22.3161 28.2073 27.4513 23.027 27.4513 16.659C27.4513 10.2908 22.3161 5.11052 16.0036 5.11052ZM25.3491 16.6604C25.3491 17.2848 24.8468 17.7917 24.2278 17.7917L16.2376 17.7909C16.2102 17.7909 16.1839 17.7872 16.1573 17.7834L16.124 17.7789C16.1065 17.7808 16.0893 17.7835 16.0721 17.7859C16.0495 17.789 16.0269 17.7917 16.0036 17.7917C15.3839 17.7917 14.8823 17.2848 14.8823 16.6604L14.8838 8.60002C14.8838 7.97478 15.3862 7.4688 16.0051 7.4688C16.6248 7.4688 17.1266 7.97478 17.1266 8.60002L17.125 15.5278L24.2278 15.5292C24.8475 15.5292 25.3491 16.0361 25.3491 16.6604Z" fill="white"/>
</svg>
