<svg width="30" height="22" viewBox="0 0 30 22" fill="none" xmlns="http://www.w3.org/2000/svg">
<path d="M9.71714 18.5222L27.6467 0.407857C28.1851 -0.135952 29.0579 -0.135952 29.5962 0.407857C29.7241 0.536397 29.8257 0.689679 29.895 0.858762C29.9643 1.02784 30 1.20935 30 1.39268C30 1.57602 29.9643 1.75752 29.895 1.9266C29.8257 2.09568 29.7241 2.24896 29.5962 2.3775L10.5776 21.5921C9.99664 22.179 9.03969 22.1255 8.52641 21.4773L0.302137 11.091C-0.173483 10.4904 -0.077079 9.61401 0.517402 9.13353C1.11194 8.65299 1.97941 8.75038 2.45502 9.35098L9.71714 18.5222Z" fill="white"/>
</svg>
